PathFileType	4	(X/Y/Z)	./resultDataOpenSim/trcMotMarkerGrf/sub09/qtm-15-01.trc
DataRate	CameraRate	NumFrames	NumMarkers	Units	OrigDataRate	OrigDataStartFrame	OrigNumFrames
250.000000	250.000000	11	24	m	250.000000	64	508
Frame#	Time	L.Toe.Tip			R.Toe.Tip			L.Ankle.Lat			R.Ankle.Lat			L.Ankle.Med			R.Ankle.Med			L.Heel			R.Heel			L.Knee.Lat			R.Knee.Lat			L.Knee.Med			R.Knee.Med			L.Thigh.Upper			R.Thigh.Upper			L.ASIS			R.ASIS			V.Sacral			L.Acromium			R.Acromium			C7			L.Elbow			R.Elbow			L.Wrist.Lat			R.Wrist.Lat
		X1	Y1	Z1	X2	Y2	Z2	X3	Y3	Z3	X4	Y4	Z4	X5	Y5	Z5	X6	Y6	Z6	X7	Y7	Z7	X8	Y8	Z8	X9	Y9	Z9	X10	Y10	Z10	X11	Y11	Z11	X12	Y12	Z12	X13	Y13	Z13	X14	Y14	Z14	X15	Y15	Z15	X16	Y16	Z16	X17	Y17	Z17	X18	Y18	Z18	X19	Y19	Z19	X20	Y20	Z20	X21	Y21	Z21	X22	Y22	Z22	X23	Y23	Z23	X24	Y24	Z24

64	0.252	-1.2619088	0.099511652	-0.078081842	-0.62927806	0.039820565	0.072325567	-1.2886669	0.25693834	-0.11603229	-0.77691924	0.05554001	0.10661709	-1.2667081	0.23619008	-0.021465886	-0.76536551	0.092613568	0.014179842	-1.354104	0.29627009	-0.06360423	-0.84497218	0.030910558	0.058740637	-0.92060394	0.43821586	-0.1367499	-0.71149138	0.50532416	0.15802084	-0.91000763	0.42050054	-0.011535678	-0.73400789	0.49336986	0.034667562	-0.93134707	0.84603737	-0.14816665	-0.8906844	0.86973648	0.22493391	-0.83745512	0.93345579	-0.099362515	-0.81838406	0.95723938	0.14229924	-0.9950117	1.0015126	0.035220093	-0.82510517	1.3936895	-0.13795585	-0.85074043	1.4100802	0.19055818	-0.90205011	1.4544077	0.023925858	-0.96670104	1.0569426	-0.20839284	-0.99132557	1.0785724	0.28251916	-0.82396011	0.83101453	-0.21446205	-0.85855547	0.83968667	0.31317302
65	0.256	-1.2460818	0.10036344	-0.078439746	-0.62932738	0.039854748	0.072335062	-1.2751282	0.25723407	-0.1153653	-0.7770107	0.055597558	0.1065803	-1.2533571	0.23641717	-0.020662158	-0.76536327	0.092683158	0.014197976	-1.3413335	0.29570559	-0.062956234	-0.84501041	0.030952351	0.058677858	-0.90821994	0.44008099	-0.1359357	-0.70947065	0.50506408	0.15826672	-0.89745129	0.4223572	-0.010638498	-0.73211332	0.49336541	0.034888968	-0.92460442	0.84798948	-0.14783966	-0.88584612	0.87113556	0.22505049	-0.83206245	0.93553505	-0.09894174	-0.81316541	0.95863992	0.14264193	-0.98968773	1.0033246	0.035463168	-0.81970579	1.3953854	-0.13797282	-0.84466999	1.4118997	0.19060346	-0.89628946	1.4561268	0.024017423	-0.96196634	1.0588081	-0.20782721	-0.985123	1.0804057	0.28329714	-0.81976547	0.83257822	-0.21440975	-0.85126163	0.84188394	0.31303766
66	0.26	-1.2299803	0.10103281	-0.078734523	-0.62938075	0.039885629	0.072364386	-1.2614761	0.25729682	-0.11468661	-0.77710591	0.055647612	0.10655364	-1.2386515	0.23649409	-0.020294961	-0.76537294	0.092746824	0.014226625	-1.328551	0.29482956	-0.062220623	-0.84503852	0.03100226	0.058609973	-0.89600895	0.44204218	-0.13510595	-0.70762664	0.50484678	0.15851346	-0.88498862	0.4243967	-0.0097261979	-0.73048002	0.49325966	0.035184949	-0.91798375	0.84999511	-0.14759916	-0.88107606	0.8725062	0.22518228	-0.82668978	0.93765687	-0.098480473	-0.80799958	0.9600322	0.14302119	-0.98437614	1.005133	0.035715294	-0.81423911	1.3971099	-0.13796428	-0.83865775	1.4137455	0.19063721	-0.89056077	1.4578331	0.024066777	-0.95728252	1.0606986	-0.20727131	-0.97893717	1.0822572	0.28405095	-0.81560526	0.8341912	-0.21434858	-0.84404169	0.84411237	0.31290509
67	0.264	-1.2136226	0.10151126	-0.078969939	-0.62944126	0.039913082	0.072414693	-1.2477078	0.25712226	-0.11399738	-0.77719116	0.055695969	0.10653482	-1.2232062	0.23638878	-0.020154036	-0.76539132	0.092803442	0.014262886	-1.3156641	0.2936269	-0.06151033	-0.84506047	0.03105856	0.058539448	-0.88389263	0.44412305	-0.13427656	-0.70594742	0.50467338	0.15874024	-0.87259807	0.42660437	-0.0088369329	-0.72895592	0.49310173	0.035442139	-0.91165456	0.85203008	-0.14745316	-0.8764198	0.87384878	0.22533305	-0.82133298	0.93981301	-0.097988202	-0.80288465	0.96139922	0.14344322	-0.97906181	1.0069492	0.035976501	-0.80887887	1.3988605	-0.13794677	-0.83270743	1.4156159	0.1906627	-0.88485958	1.4595369	0.024088254	-0.95264306	1.0626079	-0.20672047	-0.97276426	1.0841194	0.28477617	-0.81148828	0.83583826	-0.2142863	-0.83686321	0.84637644	0.31277837
68	0.268	-1.1970346	0.10180246	-0.079153859	-0.62951325	0.039938276	0.072484333	-1.2338143	0.25669308	-0.11329784	-0.77725745	0.055749436	0.10651606	-1.2079716	0.23604552	-0.019900948	-0.76542643	0.092856769	0.014302581	-1.3026411	0.29208915	-0.060826319	-0.84508035	0.031117788	0.058471829	-0.87169217	0.44637845	-0.13347295	-0.70438132	0.504513	0.15894108	-0.86025866	0.42896846	-0.0079947936	-0.72739934	0.49295114	0.035596929	-0.90561578	0.85408759	-0.14736705	-0.87201809	0.87516056	0.22551174	-0.81598775	0.94199534	-0.097480798	-0.79780428	0.96273833	0.14391616	-0.97374462	1.0087806	0.036241842	-0.80370955	1.4006236	-0.13793791	-0.82682811	1.4175137	0.19068837	-0.87918067	1.4612447	0.024092852	-0.94804606	1.0645224	-0.20617093	-0.96660492	1.0859862	0.28547512	-0.80741001	0.83750492	-0.21422981	-0.82970823	0.84868961	0.3126576
69	0.272	-1.1802589	0.101906	-0.079288501	-0.62959873	0.039963432	0.072568475	-1.2197945	0.25600226	-0.11258813	-0.77730843	0.055807611	0.10649679	-1.1932507	0.23544772	-0.019419261	-0.76549152	0.092912259	0.01434017	-1.2894663	0.29022408	-0.060145721	-0.84510085	0.031175827	0.058412408	-0.85929073	0.44883443	-0.13273042	-0.70286213	0.50433153	0.1591144	-0.84792561	0.43149112	-0.0071952414	-0.72581037	0.49282201	0.03568865	-0.89972072	0.85617822	-0.14728965	-0.86806432	0.87643972	0.22573057	-0.81064596	0.94419661	-0.096970577	-0.79274597	0.96405894	0.14443492	-0.96842884	1.0106349	0.036518379	-0.79865997	1.4023847	-0.13794136	-0.82102675	1.4194397	0.19072075	-0.87352453	1.4629578	0.024083494	-0.94349057	1.066432	-0.20562506	-0.96045811	1.0878518	0.28615553	-0.803362	0.83918145	-0.21418534	-0.8226146	0.85104489	0.31253978
70	0.276	-1.1633518	0.10180959	-0.079362003	-0.62969306	0.039989782	0.072658776	-1.2056662	0.25505529	-0.11186031	-0.77735397	0.055866855	0.10648192	-1.1787753	0.23460834	-0.018781437	-0.76559475	0.092973676	0.014368993	-1.2761193	0.28804558	-0.059473777	-0.84512385	0.031230229	0.058362395	-0.84678525	0.45143409	-0.13207828	-0.70134014	0.50411386	0.15925651	-0.83557403	0.43416536	-0.006419839	-0.72426908	0.4926986	0.035784058	-0.89374912	0.8583243	-0.14716646	-0.86456978	0.87768456	0.22598484	-0.8053	0.94641058	-0.09645731	-0.7877107	0.96537265	0.14498261	-0.96312323	1.0124888	0.036810257	-0.79362467	1.4041379	-0.13794993	-0.81530218	1.4213877	0.19076046	-0.86789366	1.4646799	0.024061045	-0.93897127	1.0683362	-0.20508675	-0.95431974	1.089712	0.28682453	-0.79933679	0.84086112	-0.21415312	-0.81567888	0.85339181	0.31241946
71	0.28	-1.1463557	0.10150963	-0.079366168	-0.62978679	0.040015378	0.072746634	-1.1914509	0.25385806	-0.11110103	-0.77738817	0.055919833	0.10646855	-1.1642843	0.23354127	-0.018068128	-0.76573333	0.093040464	0.014383661	-1.2626175	0.28556693	-0.058782055	-0.84514965	0.031282343	0.058319942	-0.8343835	0.45408672	-0.13150014	-0.69982763	0.50388379	0.15936891	-0.82329543	0.4369639	-0.0056438312	-0.72279984	0.49257295	0.035895629	-0.88748869	0.86054561	-0.1469559	-0.86115197	0.87889431	0.2262373	-0.79994661	0.94863006	-0.095929494	-0.78270307	0.96668481	0.14554227	-0.95783158	1.0142994	0.037114987	-0.78856228	1.4058817	-0.13795453	-0.80963952	1.4233444	0.19080339	-0.86228248	1.4664136	0.024033249	-0.93447622	1.0702371	-0.20454807	-0.94818913	1.0915665	0.28748733	-0.79533048	0.84253928	-0.21412846	-0.80896861	0.85566927	0.31229428
72	0.284	-1.1292519	0.10104295	-0.079328802	-0.62987382	0.040036739	0.072830867	-1.1771511	0.25241952	-0.11030906	-0.77736362	0.055943637	0.10643302	-1.1497249	0.23225255	-0.017317352	-0.76588893	0.09310725	0.014388664	-1.2490034	0.28280042	-0.058019424	-0.84517446	0.031336716	0.058283408	-0.82221151	0.45675805	-0.13092091	-0.69843843	0.50370538	0.1594798	-0.81132514	0.43988719	-0.0048200839	-0.72132374	0.49245276	0.035965557	-0.88089344	0.86283203	-0.14667117	-0.85727895	0.88007427	0.22644507	-0.79458175	0.95084567	-0.095375808	-0.77772185	0.96798839	0.14610627	-0.95253516	1.0160666	0.037444709	-0.78347982	1.4076117	-0.13795068	-0.80401472	1.425292	0.19084683	-0.85667531	1.4681498	0.024014559	-0.92998903	1.0721321	-0.20398489	-0.9420684	1.0934145	0.28814593	-0.79134133	0.84421106	-0.214112	-0.80244119	0.85785811	0.31217075
73	0.288	-1.1119867	0.10048841	-0.079269816	-0.62995914	0.040054622	0.072923692	-1.1627541	0.25075551	-0.1094917	-0.77719234	0.055897613	0.10633075	-1.135134	0.23074415	-0.016529313	-0.76603198	0.093169523	0.01439593	-1.2352869	0.27975712	-0.057185596	-0.84519155	0.031397031	0.058251652	-0.81027237	0.4594756	-0.13027204	-0.69735703	0.50365414	0.15965324	-0.79994539	0.44300463	-0.0038664887	-0.7197345	0.49234934	0.035918492	-0.87418413	0.86513542	-0.14639087	-0.85277117	0.88123464	0.22659687	-0.78919846	0.95304559	-0.094792618	-0.77275211	0.96927125	0.14667885	-0.94722421	1.0178216	0.037788647	-0.77838765	1.4093193	-0.13794139	-0.79840234	1.4272125	0.19088743	-0.85106437	1.4698659	0.024017635	-0.92549336	1.0740177	-0.20336868	-0.93595946	1.0952491	0.28879406	-0.78736697	0.84586901	-0.21411356	-0.79597833	0.85998284	0.31205864
74	0.292	-1.0945952	0.099896886	-0.079102505	-0.63005788	0.040077909	0.073046346	-1.1482524	0.24887991	-0.1086473	-0.7768305	0.055762228	0.10613869	-1.1204781	0.22902925	-0.015690327	-0.76614361	0.093230099	0.014403678	-1.2214471	0.27644663	-0.056315955	-0.84519764	0.031460666	0.058224486	-0.79850337	0.4622706	-0.1295525	-0.69666324	0.50375467	0.1599399	-0.78925499	0.44636283	-0.002725076	-0.7180085	0.4922658	0.0357495	-0.86764703	0.86740446	-0.14619289	-0.84788366	0.88238366	0.22670822	-0.78379479	0.95521622	-0.094183378	-0.76774207	0.97052907	0.14728048	-0.94196384	1.0195746	0.038010529	-0.77328782	1.4109926	-0.13793124	-0.79277928	1.4290957	0.19091461	-0.84547772	1.4715403	0.024048157	-0.92098224	1.0758917	-0.2026926	-0.92987138	1.0970593	0.28940992	-0.78340436	0.8475045	-0.21414324	-0.78947018	0.86207525	0.31195532
